<?xml version="1.0" standalone="no"?><!DOCTYPE svg PUBLIC "-//W3C//DTD SVG 1.1//EN" "http://www.w3.org/Graphics/SVG/1.1/DTD/svg11.dtd"><svg t="1751769660966" class="icon" viewBox="0 0 1024 1024" version="1.1" xmlns="http://www.w3.org/2000/svg" p-id="5654" xmlns:xlink="http://www.w3.org/1999/xlink" width="200" height="200"><path d="M437.366154 15.832615a98.461538 98.461538 0 0 1 93.735384 0l363.204924 201.924923c29.932308 16.896 48.206769 48.009846 48.206769 81.880616v60.849231l2.205538 3.544615 5.789539 2.835692a93.420308 93.420308 0 0 1 49.782154 86.134154l-0.59077 7.876923c-6.616615 51.121231-54.350769 87.670154-106.456615 81.132308-52.184615-6.577231-89.245538-53.563077-82.628923-104.802462 3.899077-29.932308 22.094769-56.162462 48.797538-70.419692l5.632-2.756923 2.205539-3.544615V299.638154a22.843077 22.843077 0 0 0-3.465846-11.736616l-3.308308-2.835692-2.363077-1.693538-363.598769-202.200616a16.817231 16.817231 0 0 0-15.556923-1.339077l-2.796308 1.10277-366.552615 202.712615a17.723077 17.723077 0 0 0-9.491693 12.563692L100.036923 723.377231a22.843077 22.843077 0 0 0 3.426462 11.736615l3.347692 2.796308 3.229538 1.969231 365.016616 202.515692c4.883692 2.756923 10.752 3.584 14.926769 1.969231l3.741538-1.851077 362.811077-202.043077a17.604923 17.604923 0 0 0 9.491693-13.193846l0.512-2.520616 0.078769-42.92923c0-18.235077 13.390769-33.476923 33.161846-37.021539l4.923077-0.551385c20.48 0 37.809231 17.053538 37.809231 37.612308v42.102154c0 33.870769-18.313846 64.984615-48.246154 81.880615l-363.204923 201.924923a95.468308 95.468308 0 0 1-93.735385 0L72.467692 805.257846l-5.828923-3.465846A93.853538 93.853538 0 0 1 23.630769 723.416615V282.584615l1.890462-1.496615c5.513846-26.505846 22.606769-49.624615 46.907077-63.409231z m466.944 395.815385a37.809231 37.809231 0 0 0-38.124308 37.572923c0 20.48 17.329231 37.533538 38.124308 37.533539a37.809231 37.809231 0 0 0 38.124308-37.533539c0-20.48-17.329231-37.572923-38.124308-37.572923z" p-id="5655" fill="#1296db"></path><path d="M435.396923 317.046154l2.56 5.513846 120.241231 334.611692a33.28 33.28 0 0 1-17.801846 41.629539 34.264615 34.264615 0 0 1-43.677539-13.784616l-2.481231-5.513846-16.147692-44.622769H336.108308l-15.478154 44.386462a34.028308 34.028308 0 0 1-37.297231 22.134153l-5.907692-1.378461a33.398154 33.398154 0 0 1-22.488616-36.745846l1.496616-5.828923 117.523692-334.611693a33.870769 33.870769 0 0 1 28.829539-22.331077 34.107077 34.107077 0 0 1 32.649846 16.541539z m192.708923-16.738462c16.423385 0 30.483692 11.539692 33.437539 27.411693l0.551384 6.025846v334.611692c0 17.329231-13.390769 31.822769-30.916923 33.398154a33.870769 33.870769 0 0 1-36.470154-27.372308l-0.551384-6.025846V333.745231c0-18.471385 15.202462-33.476923 33.949538-33.476923z m-221.774769 134.695385L359.581538 567.965538h94.523077l-47.773538-132.962461z" p-id="5656" fill="#1296db"></path></svg>